<svg width="24" height="24" viewBox="0 0 24 24" fill="none" xmlns="http://www.w3.org/2000/svg">
<path d="M18.6309 4.23438C18.9433 3.92216 19.4494 3.92204 19.7617 4.23438C20.0741 4.54673 20.0739 5.0528 19.7617 5.36523L13.1289 11.998L19.7656 18.6348C20.078 18.9472 20.0781 19.4542 19.7656 19.7666C19.4533 20.0789 18.9472 20.0787 18.6348 19.7666L11.998 13.1289L5.36133 19.7666C5.04891 20.0787 4.54281 20.0789 4.23047 19.7666C3.91804 19.4542 3.91806 18.9472 4.23047 18.6348L10.8662 11.998L4.23438 5.36523C3.92215 5.0528 3.92202 4.54673 4.23438 4.23438C4.54673 3.92204 5.05281 3.92216 5.36523 4.23438L11.998 10.8672L18.6309 4.23438Z" fill="#33363D"/>
</svg>
