<svg width="20" height="20" viewBox="0 0 20 20" fill="none" xmlns="http://www.w3.org/2000/svg">
<path d="M10 1.66699C14.6023 1.66699 18.333 5.39766 18.333 10C18.333 14.6024 14.6023 18.333 10 18.333C5.39763 18.333 1.66699 14.6024 1.66699 10C1.66699 5.39767 5.39762 1.66699 10 1.66699ZM10 3C6.13401 3 3 6.13404 3 10C3 13.866 6.13401 17 10 17C13.866 17 17 13.866 17 10C17 6.13404 13.866 3 10 3ZM9.5332 7.5332C9.79356 7.2729 10.2162 7.27287 10.4766 7.5332L13.3047 10.3623C13.5648 10.6227 13.5649 11.0444 13.3047 11.3047C13.0444 11.565 12.6227 11.5648 12.3623 11.3047L10.0049 8.94727L7.64746 11.3047C7.38711 11.5649 6.96538 11.565 6.70508 11.3047C6.44477 11.0444 6.44487 10.6227 6.70508 10.3623L9.5332 7.5332Z" fill="#33363D"/>
</svg>
